<?xml version="1.0" encoding="utf-8"?>
<!-- Generator: Adobe Illustrator 22.0.0, SVG Export Plug-In . SVG Version: 6.00 Build 0)  -->
<svg version="1.1" id="Calque_1" xmlns="http://www.w3.org/2000/svg" xmlns:xlink="http://www.w3.org/1999/xlink" x="0px" y="0px"
	 viewBox="0 0 280.8 272.8" style="enable-background:new 0 0 280.8 272.8;" xml:space="preserve">
<style type="text/css">
	.st0{fill:#231F20;}
	.st1{fill:#F7941D;}
	.st2{font-family:'UniNeue-Trial-Regular';}
	.st3{font-size:70.5px;}
	.st4{letter-spacing:-2;}
	.st5{letter-spacing:-3;}
	.st6{fill:#F89520;}
</style>
<title>logoadja</title>
<g>
	<g>
		<path class="st0" d="M63.4,104.8c0,2.6-0.8,5.2-2.4,7.3l0,0c-0.7,0.9-1.5,1.7-2.4,2.4l0,0c-0.8,0.6-1.6,1-2.5,1.4
			c-0.5,0.2-1.1,0.4-1.6,0.6c-0.3,0.1-0.5,0.1-0.8,0.2c-0.6,0.1-1.3,0.2-1.9,0.2l0,0l-0.5,0.9l-0.5-0.9l0,0c-0.6,0-1.3-0.1-1.9-0.2
			c-0.3-0.1-0.5-0.1-0.8-0.2c-0.5-0.2-1.1-0.4-1.6-0.6c-0.9-0.4-1.7-0.8-2.4-1.4l0,0c-0.9-0.7-1.7-1.5-2.4-2.4l0,0
			c-2.2-3-3-6.8-2.1-10.4l2,3.5l0,0c0.1,2.3,1,4.4,2.5,6.1c0.2,0.3,0.5,0.5,0.8,0.8c0.4,0.4,0.8,0.7,1.3,1l0,0l0.4,0.2
			c0.8,0.4,1.6,0.8,2.4,1l0.4,0.1c0.3,0.1,0.6,0.1,0.9,0.1h2.3c0.3,0,0.6-0.1,0.9-0.1l0.4-0.1c0.9-0.2,1.7-0.6,2.4-1l0.4-0.2
			c0.5-0.3,0.9-0.6,1.3-1c0.3-0.2,0.5-0.5,0.8-0.8c1.5-1.7,2.4-3.9,2.5-6.1l0,0l2-3.5C63.3,102.7,63.4,103.7,63.4,104.8"/>
		<path class="st0" d="M61.9,136.5l-1-1.7l-0.2-0.3l-0.3-0.5l-1.4-2.4l-0.6-1l-0.8-1.4l-1.4-2.4l-0.2-0.4l-1.1-2.1l-1.2-2.2V122
			l-0.1-0.2l-1-1.8l-0.4-0.6l0,0l-0.9-1.5l-0.9,1.5l0,0L50,120l-1,1.8l0,0.2v0.1l-1.2,2.2l-1.2,2.1l-0.2,0.4l-1.4,2.4l-1,1.4l-0.6,1
			l-1.4,2.5l-0.3,0.5l-0.2,0.3l-1,1.7l0,0l0,0l1,1.7l0.3,0.4l0.1,0.3l1.4,2.4l0.6,1.1l0.8,1.4l1.4,2.4l0.2,0.4l1.2,2l1.3,2.2l0,0
			l0.1,0.2l1.2,2l0.2,0.4l0,0l0.9,1.6l0.9-1.6l0,0l0.2-0.4l0,0l1.2-2l0.1-0.2l0,0l1.3-2.2l1.2-2l0.2-0.4l1.4-2.4l0.8-1.4l0.6-1.1
			l1.4-2.4l0.2-0.3l0.3-0.4L61.9,136.5L61.9,136.5L61.9,136.5z M58.5,138.5l-0.3,0.5l-1.4,2.4l-0.8,1.3l-0.7,1.1l-1.4,2.4l-0.4,0.6
			l-1,1.8l-1.4,2.4l0,0l-1.4-2.4l-1-1.8l-0.4-0.7l-1.4-2.4l-0.7-1.1l-0.8-1.3l-1.5-2.5l-0.3-0.5l-1-1.8l0.1-0.2l0.9-1.6l0.5-0.8
			l1.4-2.4l0.5-1l0.9-1.5l1.4-2.4l0.2-0.3l1.2-2.1l1.2-2.1l1.2,2.1l1.2,2.1l0.2,0.3l1.4,2.4l0.8,1.5l0.5,1l1.4,2.4l0.5,0.8l0.9,1.6
			l0.1,0.2L58.5,138.5z"/>
		<path class="st0" d="M63.4,168.2c0,1.1-0.1,2.2-0.4,3.3l-1.9-3.4l0,0c0-1.7-0.5-3.3-1.3-4.8c-0.3-0.6-0.7-1.2-1.2-1.7
			c-0.2-0.3-0.5-0.5-0.8-0.8c-0.5-0.4-1-0.8-1.6-1.2l-0.1-0.1v0.1c-0.8-0.4-1.6-0.8-2.4-1l-0.4-0.1c-0.3-0.1-0.6-0.1-0.9-0.1
			c-0.4,0-0.7-0.1-1.1-0.1l0,0c-0.4,0-0.7,0-1.1,0.1c-0.3,0-0.6,0.1-0.9,0.1l-0.4,0.1c-0.9,0.2-1.7,0.6-2.4,1v-0.1l-0.1,0.2
			c-0.6,0.3-1.1,0.7-1.6,1.1c-0.3,0.2-0.5,0.5-0.8,0.8c-0.5,0.5-0.9,1.1-1.2,1.7c-0.8,1.5-1.3,3.1-1.3,4.8l0,0l-1.9,3.4
			c-1-3.6-0.3-7.6,2-10.6l0,0c0.7-0.9,1.5-1.7,2.5-2.4l0,0c0.7-0.6,1.6-1,2.4-1.4c0.6-0.3,1.2-0.5,1.8-0.6l0.6-0.1
			c0.6-0.1,1.3-0.2,1.9-0.2l0,0l0.5-0.9l0.5,0.9l0,0c0.6,0,1.3,0.1,1.9,0.2l0.6,0.1c0.6,0.2,1.2,0.4,1.8,0.6
			c0.9,0.4,1.7,0.9,2.4,1.4l0,0c0.9,0.7,1.7,1.5,2.4,2.4l0,0c0.6,0.8,1,1.6,1.4,2.4C63,164.8,63.3,166.5,63.4,168.2"/>
		<path class="st1" d="M55,105.9c0,2.1-1.7,3.8-3.8,3.8s-3.8-1.7-3.8-3.8s1.7-3.8,3.8-3.8l0,0C53.3,102.2,55,103.8,55,105.9
			L55,105.9"/>
		<path class="st0" d="M54.8,136.5c0,2.1-1.7,3.8-3.8,3.8s-3.8-1.7-3.8-3.8s1.7-3.8,3.8-3.8l0,0C53.1,132.7,54.8,134.4,54.8,136.5
			L54.8,136.5"/>
		<path class="st1" d="M55,166.9c0,2.1-1.7,3.8-3.8,3.8s-3.8-1.7-3.8-3.8s1.7-3.8,3.8-3.8l0,0C53.3,163.2,55,164.9,55,166.9"/>
	</g>
	<text transform="matrix(1 0 0 1 67.17 158.77)" class="st0 st2 st3 st4">Ad</text>
	<text transform="matrix(1 0 0 1 142.18 158.77)" class="st0 st2 st3 st4">j</text>
	<text transform="matrix(1 0 0 1 154.73 158.77)" class="st0 st2 st3 st4">a</text>
	<text transform="matrix(1 0 0 1 187.3 158.77)" class="st0 st2 st3 st5">r</text>
	<text transform="matrix(1 0 0 1 209.51 158.77)" class="st0 st2 st3">a</text>
	<g>
		<path class="st1" d="M153.9,112.1c0,1.9-1.6,3.5-3.5,3.5s-3.5-1.6-3.5-3.5s1.6-3.5,3.5-3.5l0,0
			C152.3,108.6,153.9,110.1,153.9,112.1"/>
	</g>
	<g>
		<g>
			<path class="st6" d="M194.3,108V94.4h5.5V108c0,1.4,0.3,2.4,1,3.1s1.7,1.1,2.9,1.1c1.3,0,2.3-0.4,3-1.1s1-1.8,1-3.1V94.4h5.5V108
				c0,2-0.5,3.7-1.4,5.2s-2.1,2.5-3.6,3.2c-1.4,0.7-3,1-4.7,1c-2.6,0-4.9-0.8-6.7-2.5C195.2,113.3,194.3,111,194.3,108z"/>
			<path class="st6" d="M237.9,94.4l-7.2,11.4l7.2,11.3h-6.3l-4.2-6.6l-3.9,6.6h-6.3l7.2-11.4l-7.2-11.4h6.3l4.2,6.6l3.9-6.6
				L237.9,94.4L237.9,94.4z"/>
		</g>
	</g>
</g>
</svg>
